**ABCDEFGHIJKLMNOPQRSTUVWXYZabcdefghijklmnopqrstuvwxyz**************************
**PARASOLID !"#$%&'()*+,-./:;<=>?@[\]^_`{|}~0123456789**************************
**PART1;
MC=AMD64;
MC_MODEL=AMD64 Family 25 Model 80 Stepping 0, AuthenticAMD;
MC_ID=unknown;
OS=Windows_NT;
OS_RELEASE=unknown;
FRU=Parasolid Version 33.1, build 247,  8- 6-2021;
APPL=SOLIDWORKS 2022-2022009;
SITE=;
USER=unknown;
FORMAT=text;
GUISE=transmit;
KEY=FILEmakeProjectedPlanarWire.x_t;
DATE=Sun Apr 14 03:01:37 2024;
**PART2;
SCH=SCH_3301247_33103;
USFLD_SIZE=0;
**PART3;
**END_OF_HEADER*****************************************************************
T51 : TRANSMIT FILE created by modeller version 330124723 SCH_3301247_33103_1300
6230 0 12 35 CCCI7 lattice222 0 CCCI4 mesh1006 0 I8 polyline1008 0 CCCCCCCDI5 ow
ner1040 0 CCCCCCI13 boundary_mesh1006 0 I17 boundary_polyline1008 0 CCCA16 index
_map_offset0 0 1 dA9 index_map82 0 A17 node_id_index_map82 0 A20 schema_embeddin
g_map82 0 A5 child12 0 A14 lowest_node_id0 0 1 dA16 mesh_offset_data206 0 Z1 124
 0 2 0 0 0 0 0 0 0 1e3 1e-8 0 3 0 1 0 3 1 4 5 6 7 0 0 8 9 10 0 0 0 0 0 0 0 70 11
 CI9 list_type0 0 1 uI10 notransmit0 0 1 lCCCDCCDI12 finger_index0 0 1 dI12 fing
er_block1012 0 CZ2 0 4 T1 0 0 1 20 1 11 11 13 255 4 109 0 1 0 12 0 0 8 12 124 25
5 5 59 0 1 13 0 14 +15 16 38 12 CCCCCCCCCCCA17 intersection_data204 0 Z6 60 0 17
 18 0 0 +19 13 20 21 22 23 29 255 7 101 0 10 24 0 .0199975590406939 -.022 .00031
2461860010838 19 8 CCCCCCCA5 owner12 0 Z8 108 0 1 0 0 4 V0 16 255 9 74 0 1119555
89624721e-20 25 0 26 0 0 0 1 18 255 10 99 0 27 0 28 7 111955589624721e-20 1 17 2
55 27 0 0 0 0 10 29 30 0 25 -18 28 96 0 31 10 32 24 111955589624721e-20 1 17 31
 0 33 25 34 28 35 26 36 37 +18 32 93 0 34 28 38 39 111955589624721e-20 1 29 24 9
8 0 28 39 7 -.0199975590406939 -.022 .0003124618600108335 29 39 95 0 32 40 24 -.
0199975590406939 -.022 -.0003124618600108405 29 40 92 0 38 41 39 .01999755904069
39 -.022 -.00031246186001084 18 38 90 0 29 32 42 40 111955589624721e-20 1 29 41
 89 0 42 43 40 .0194953177942502 -.022 -.0003047641701922355 18 42 87 0 44 38 45
 41 ?1 29 43 86 0 45 46 41 -.0194953177942503 -.022 -.0003047641701856085 18 45
 84 0 47 42 48 43 ?1 29 46 83 0 48 49 43 -.0194953177942502 -.022 .0003047641701
931825 18 48 81 0 50 45 51 46 ?1 29 49 80 0 51 0 46 .01949531779425025 -.022 .00
030476417018874 18 51 78 0 52 48 0 49 ?1 17 52 0 53 50 54 51 44 55 0 56 -15 255
 53 6 0 52 12 33 17 50 0 53 47 52 48 56 57 0 58 -17 54 0 53 52 47 42 59 17 0 0 -
17 44 0 0 0 0 42 52 55 0 54 +16 55 28 0 ?44 57 0 60 0 0 1 17 56 0 0 0 0 51 50 57
 0 0 +16 57 37 0 ?56 61 55 62 0 0 1 16 61 45 0 ?58 17 57 18 0 0 1 38 62 44 0 57
 60 18 0 +19 63 64 65 66 67 38 60 36 0 55 68 62 0 +19 69 70 71 72 73 38 18 52 0
 61 62 6 0 +19 74 75 76 77 78 50 255 19 57 0 1 79 69 80 +0 -.022 0 0 1 0 0 0 1 6
0 255 63 42 0 1 81 82 83 +UF82 -5e-4 ?40 255 11 64 0 1 11 .00110258279012365 .33
79509048262285 ??-.0194953177942502 -.022 .0003047641701931825 -.018300619467106
1 -.022 .00673329931656081 -.0150451034383065 -.022 .01240381691103454 -.0100984
3649697456 -.022 .0166771503510384 -.00400362328591686 -.022 .01907865878530545
 .002530695951641465 -.022 .0193285997789741 .00879959982716242 -.022 .017397007
3288142 .0140684090116194 -.022 .01350062179436494 .01774364922494435 -.022 .008
08786384753026 .0194186959794238 -.022 .001763385068251625 .01949531779425025 -.
022 .00030476417018874 41 3 CI8 term_use0 0 1 cCZ1 65 L?-.0194953177942502 -.022
 .0003047641701931825 41 1 66 L?.01949531779425025 -.022 .00030476417018874 204
 2 17 INTERSECTION_DATA17 Intersection data7 uv_type0 0 1 u6 values0 1 1 fT44 67
 4 .0003047641701931825 -.0194953177942502 -386336036502945e-20 1.00038237367827
6 .00673329931656081 -.0183006194671061 .1456915008531638 1.00004653915589 .0124
0381691103454 -.0150451034383065 .260528929451381 .999748962510636 .016677150351
0384 -.01009843649697456 .3582653761405325 .999527326891699 .01907865878530545 -
.00400362328591686 .447313491739115 .999404480722566 .0193285997789741 .00253069
5951641465 .533091026454262 .999391822496525 .0173970073288142 .0087995998271624
2 .621087568557207 .999490282676695 .01350062179436494 .0140684090116194 .716480
816067431 .999691787666963 .00808786384753026 .01774364922494435 .82664571993766
3 .999975330832329 .001763385068251625 .0194186959794238 .963867165212717 1.0003
06679183062 .00030476417018874 .01949531779425025 1.000003863360476 1.0003823736
78276 124 81 35 0 1 69 63 84 +85 86 124 82 43 0 1 63 74 87 +88 89 141 255 83 62
 83 83 63 60 74 50 0 1 82 90 91 +UF90 -5e-4 ?141 87 63 87 87 82 126 255 88 FF3 1
 40 3 6 5 19 3 FFF9 3 92 93 94 95 96 125 255 89 0 1 0 1 -.01 1.01 0 1.01 1 BBBBB
BBB????0 0 0 0 45 255 360 92 -.03264 -.147 5e-4 -.02000380751518745 -.022 -87440
5075752055e-19 -.0198774455903393 -.02075 -933149126509577e-19 -.032426666666666
65 -.147 5e-4 -.02000172469035625 -.022 458602816201407e-19 -.01987747527059315
 -.02075 413188844363421e-19 -.03221333333333335 -.147 5e-4 -.0199996418655251 -
.022 .000179161070815487 -.019877504950847 -.02075 .000175952681523642 -.032 -.1
47 5e-4 -.0199975590406939 -.022 .0003124618600108335 -.01987753463110085 -.0207
5 .0003105864786109415 -.03066666666666665 -.147 5e-4 -.01998454138549905 -.022
 .001145591792481748 -.0198777201326874 -.02075 .001152047710406564 -.0293333333
333333 -.147 5e-4 -.01991902421521185 -.022 .002029684770431255 -.01982488112403
065 -.02075 .002044981618135565 -.02666666666666665 -.147 5e-4 -.019640114577264
2 -.022 .00389269127281504 -.0195698490563702 -.02075 .00392661818554319 -.02533
33333333333 -.147 5e-4 -.01942659528083585 -.022 .0048718588725669 -.01936752790
03109 -.02075 .00491557746129257 -.02266666666666665 -.147 5e-4 -.01880149061377
05 -.022 .00690156241585218 -.0187628388532415 -.02075 .0069655780400107 -.02133
33333333333 -.147 5e-4 -.01838958376482695 -.022 .00795234572261161 -.0183601462
691419 -.02075 .00802686917983773 -.01866666666666665 -.147 5e-4 -.0173166367292
788 -.022 .0100772360259011 -.0173031364299049 -.02075 .01017300838616012 -.0173
333333333333 -.147 5e-4 -.01665503399229685 -.022 .01115142718106522 -.016648250
9988865 -.02075 .01125794145287588 -.01466666666666664 -.147 5e-4 -.015043919057
8996 -.022 .0132448097320622 -.0150476915818119 -.02075 .01337225782938284 -.013
33333333333332 -.147 5e-4 -.01409369939816962 -.022 .0142636884075 -.01410130305
881798 -.02075 .014401325291575 -.01066666666666664 -.147 5e-4 -.011898510718674
7 -.022 .01614034114849495 -.0119108291591948 -.02075 .0162967445599799 -.009333
33333333332 -.147 5e-4 -.0106530299129873 -.022 .01699724977358935 -.01066622687
878384 -.02075 .01716222227132525 -.00666666666666665 -.147 5e-4 -.0079122778345
5677 -.022 .01843337748926025 -.00792473394623567 -.02075 .01861271126415285 -.0
0533333333333332 -.147 5e-4 -.0064171732879134 -.022 .01901137749378815 -.006428
0116874592 -.02075 .019196491268726 -.00266666666666665 -.147 5e-4 -.00328092651
891637 -.022 .01979515365931505 -.00328706911743887 -.02075 .0199881051959082 -.
001333333333333318 -.147 5e-4 -.00164082843810472 -.022 .02 -.00164390338915243
 -.02075 .020195 .001333333333333348 -.147 5e-4 .001640828438104715 -.022 .02 .0
01643903389152425 -.02075 .020195 .00266666666666668 -.147 5e-4 .003280926518916
37 -.022 .01979515365931505 .003287069117438865 -.02075 .0199881051959082 .00533
333333333335 -.147 5e-4 .0064171732879134 -.022 .01901137749378815 .006428011687
4592 -.02075 .019196491268726 .00666666666666668 -.147 5e-4 .00791227783455677 -
.022 .01843337748926025 .00792473394623567 -.02075 .01861271126415285 .009333333
33333335 -.147 5e-4 .0106530299129873 -.022 .01699724977358935 .0106662268787838
4 -.02075 .01716222227132525 .01066666666666668 -.147 5e-4 .0118985107186747 -.0
22 .01614034114849495 .0119108291591948 -.02075 .0162967445599799 .0133333333333
3334 -.147 5e-4 .01409369939816962 -.022 .01426368840750002 .01410130305881798 -
.02075 .01440132529157502 .01466666666666668 -.147 5e-4 .01504391905789955 -.022
 .01324480973206222 .0150476915818119 -.02075 .01337225782938284 .01733333333333
335 -.147 5e-4 .01665503399229685 -.022 .01115142718106522 .0166482509988865 -.0
2075 .01125794145287588 .0186666666666667 -.147 5e-4 .0173166367292788 -.022 .01
00772360259011 .0173031364299049 -.02075 .01017300838616012 .02133333333333335 -
.147 5e-4 .01838958376482695 -.022 .00795234572261161 .0183601462691419 -.02075
 .00802686917983773 .0226666666666667 -.147 5e-4 .0188014906137705 -.022 .006901
56241585219 .01876283885324155 -.02075 .00696557804001071 .02533333333333335 -.1
47 5e-4 .01942659528083585 -.022 .00487185887256691 .0193675279003109 -.02075 .0
0491557746129258 .0266666666666667 -.147 5e-4 .0196401145772642 -.022 .003892691
272815045 .0195698490563702 -.02075 .003926618185543195 .02933333333333335 -.147
 5e-4 .01991902421521185 -.022 .002029684770431255 .01982488112403065 -.02075 .0
0204498161813557 .0306666666666667 -.147 5e-4 .01998454138549905 -.022 .00114559
1792481752 .01987772013268735 -.02075 .00115204771040657 .032 -.147 5e-4 .019997
5590406939 -.022 .000312461860010838 .01987753463110085 -.02075 .000310586478610
9465 .03221333333333335 -.147 5e-4 .0199996418655251 -.022 .000179161070815492 .
019877504950847 -.02075 .000175952681523647 .0324266666666667 -.147 5e-4 .020001
72469035625 -.022 458602816201457e-19 .01987747527059315 -.02075 413188844363470
5e-20 .03264 -.147 5e-4 .02000380751518745 -.022 -874405075752006e-19 .019877445
5903393 -.02075 -933149126509527e-19 127 255 19 93 4 3 2 2 2 2 2 2 2 2 2 2 2 2 2
 2 2 3 4 127 3 94 2 1 2 128 255 19 95 -.01 0 .0625 .125 .1875 .25 .3125 .375 .43
75 .5 .5625 .625 .6875 .75 .8125 .875 .9375 1 1.01 128 3 96 0 1 1.01 124 90 51 0
 1 74 13 97 +98 99 141 91 18 91 91 74 60 13 58 0 1 90 5 100 +UF5 -5e-4 ?141 97 7
4 97 97 90 126 98 FF3 1 12 3 6 5 5 3 FFF9 3 101 102 103 104 105 125 99 0 1 0 1 -
.01 1.01 0 1.01 1 BBBBBBBB????0 0 0 0 45 108 101 -.032 -.147 -51e-5 -.0199974614
0827995 -.022 -.0003187103345043725 -.01987743602236275 -.02075 -.00031679743784
9416 -.032 -.147 -.000506666666666667 -.01999749395241795 -.022 -.00031662750967
3195 -.0198774688919421 -.02075 -.0003147271181032605 -.032 -.147 -.000503333333
333333 -.0199975264965559 -.022 -.000314544684842018 -.0198775017615215 -.02075
 -.0003126567983571045 -.032 -.147 -5e-4 -.0199975590406939 -.022 -.000312461860
0108405 -.01987753463110085 -.02075 -.000310586478610949 -.032 -.147 -.000333333
333333333 -.01999918624759325 -.022 -.000208320618451978 -.0198791781100692 -.02
075 -.0002070704913031645 -.032 -.147 -.000166666666666666 -.01999999985104295 -
.022 -.000104160309225991 -.0198799998495534 -.02075 -.0001035352456515842 -.032
 -.147 .0001666666666666675 -.01999999985104295 -.022 .0001041603092259836 -.019
8799998495534 -.02075 .0001035352456515768 -.032 -.147 .0003333333333333335 -.01
999918624759325 -.022 .000208320618451971 -.0198791781100692 -.02075 .0002070704
91303157 -.032 -.147 5e-4 -.0199975590406939 -.022 .0003124618600108335 -.019877
53463110085 -.02075 .0003105864786109415 -.032 -.147 .000503333333333333 -.01999
75264965559 -.022 .0003145446848420105 -.0198775017615215 -.02075 .0003126567983
570975 -.032 -.147 .000506666666666667 -.01999749395241795 -.022 .00031662750967
3188 -.0198774688919421 -.02075 .000314727118103253 -.032 -.147 51e-5 -.01999746
140827995 -.022 .000318710334504365 -.01987743602236275 -.02075 .000316797437849
4085 127 5 102 4 3 2 3 4 127 3 103 2 1 2 128 5 104 -.01 0 .5 1 1.01 128 3 105 0
 1 1.01 141 100 6 100 100 13 60 69 34 0 1 19 81 106 +UF81 -5e-4 ?141 84 69 84 84
 81 126 85 FF3 1 12 3 6 5 5 3 FFF9 3 107 108 109 110 111 125 86 0 1 0 1 -.01 1.0
1 0 1.01 1 BBBBBBBB????0 0 0 0 45 108 107 .032 -.147 51e-5 .01999746140827995 -.
022 .0003187103345043745 .01987743602236275 -.02075 .000316797437849418 .032 -.1
47 .000506666666666667 .01999749395241795 -.022 .000316627509673197 .01987746889
19421 -.02075 .0003147271181032625 .032 -.147 .000503333333333333 .0199975264965
559 -.022 .00031454468484202 .0198775017615215 -.02075 .000312656798357107 .032
 -.147 5e-4 .0199975590406939 -.022 .0003124618600108425 .01987753463110085 -.02
075 .000310586478610951 .032 -.147 .000333333333333333 .01999918624759325 -.022
 .0002083206184519785 .0198791781100692 -.02075 .000207070491303165 .032 -.147 .
0001666666666666665 .01999999985104295 -.022 .00010416030922599 .019879999849553
4 -.02075 .0001035352456515832 .032 -.147 -.000166666666666667 .0199999998510429
5 -.022 -.0001041603092259874 .0198799998495534 -.02075 -.0001035352456515806 .0
32 -.147 -.0003333333333333335 .01999918624759325 -.022 -.0002083206184519765 .0
198791781100692 -.02075 -.0002070704913031625 .032 -.147 -5e-4 .0199975590406939
 -.022 -.00031246186001084 .01987753463110085 -.02075 -.0003105864786109485 .032
 -.147 -.000503333333333333 .0199975264965559 -.022 -.0003145446848420175 .01987
75017615215 -.02075 -.0003126567983571045 .032 -.147 -.000506666666666667 .01999
749395241795 -.022 -.000316627509673195 .0198774688919421 -.02075 -.000314727118
10326 .032 -.147 -51e-5 .01999746140827995 -.022 -.000318710334504372 .019877436
02236275 -.02075 -.000316797437849416 127 5 108 4 3 2 3 4 127 3 109 2 1 2 128 5
 110 -.01 0 .5 1 1.01 128 3 111 0 1 1.01 141 106 60 106 106 69 50 79 26 0 12 0 1
9 112 +0 -.022 0 0 1 0 0 0 1 141 80 60 113 114 19 141 113 6 115 80 19 141 114 62
 80 115 19 141 115 18 114 113 19 14 255 12 1 116 ?0 0 53 4 79 +0 0 0 0 4 141 112
 117 118 119 79 137 255 117 10 0 1 120 121 122 +79 123 0 ?141 118 68 124 112 79
 141 119 125 112 124 79 137 125 15 0 1 121 36 126 +79 127 0 ?141 124 128 119 118
 79 137 128 20 0 1 36 129 130 +79 131 0 ?133 255 36 22 0 31 125 128 0 +128 -.019
9975590406939 -.022 -.0003124618600108405 -.0199975590406939 -.022 .000312461860
0108335 0 1 133 129 27 0 25 128 68 0 +68 -.0199975590406939 -.022 .0003124618600
108335 .0199975590406939 -.022 .000312461860010838 0 1 141 130 36 130 130 128 13
4 255 131 0 0 0 0 0 0 +132 133 136 255 132 2 3 2 2 5 FFF1 134 135 136 135 255 13
3 2 0 45 6 134 -.0003124618600108405 -.0199975590406939 -737257477290143e-32 -.0
200024412572566 .0003124618600108335 -.0199975590406939 127 2 135 3 3 128 2 136
 0 1 17 25 0 33 29 31 10 37 9 129 0 +137 68 25 0 1 129 60 137 +79 138 0 ?141 137
 129 137 137 68 134 138 0 0 0 0 0 0 +139 140 136 139 2 33 2 17 5 FFF1 141 142 14
3 135 140 2 0 45 66 141 .0003124618600108335 -.0199975590406939 .002262057081363
365 -.0199670966153603 .004169595142969075 -.01956053364158885 .0060763288462527
8 -.0191541421046647 .00786965489469223 -.0183866400366801 .00966196966603328 -.
0176195707719021 .0112732555319147 -.0165201001725823 .01288363277523002 -.01542
12495773341 .0142521794333396 -.01403122879151686 .01561995435230285 -.012641991
8543527 .0166942070475636 -.01101378459264014 .01776785395944345 -.0093864954956
2407 .01850734433497675 -.00758143823206415 .0192464177034365 -.0057773988609231
 .0196232882909508 -.003863490216142985 .01999994635682595 -.001950660846360515
 .02 0 .02000005361292405 .00194956084635268 .0196232882909508 .0038634902161429
8 .0192467354312581 .00577634029923949 .01850734433497675 .00758143823206415 .01
77683701898039 .00938551824948812 .0166942070475636 .01101378459264014 .01562064
963823725 .01264113273772904 .0142521794333396 .01403122879151684 .0128844809245
0128 .01542054095418085 .0112732555319147 .0165201001725823 .00966293872784846 .
0176190393369008 .00786965489469223 .0183866400366801 .00607738231491393 .019153
8078775966 .00416959514296908 .01956053364158885 .00226261224265848 .01996708794
096505 .000312461860010838 .0199975590406939 127 17 142 3 2 2 2 2 2 2 2 2 2 2 2
 2 2 2 2 3 128 17 143 0 .0625 .125 .1875 .25 .3125 .375 .4375 .5 .5625 .625 .687
5 .75 .8125 .875 .9375 1 15 33 7 0 29 12 0 17 29 0 33 34 25 38 27 30 120 144 +17
 37 0 0 0 0 28 25 9 0 0 -17 34 0 33 31 29 32 144 145 121 35 +16 30 61 0 11195558
9624721e-20 29 145 17 0 0 0 1 133 120 12 0 29 0 117 0 +117 .0199975590406939 -.0
22 .000312461860010838 .0199975590406939 -.022 -.00031246186001084 0 1 17 144 0
 0 0 0 38 34 145 0 0 -16 145 66 0 111955589624721e-20 34 26 30 0 0 0 1 16 26 70
 0 111955589624721e-20 31 9 145 0 0 0 1 16 17 53 0 ?59 30 61 6 0 0 1 17 59 0 0 0
 0 45 54 17 0 0 +133 121 17 0 34 117 125 0 +125 .0199975590406939 -.022 -.000312
46186001084 -.0199975590406939 -.022 -.0003124618600108405 0 1 17 35 0 0 0 0 32
 31 26 0 0 -141 126 121 126 126 125 134 127 0 0 0 0 0 0 +146 147 136 146 2 33 2
 17 5 FFF1 148 149 150 135 147 2 0 45 66 148 -.00031246186001084 .01999755904069
39 -.00226205708136553 .01996709661536025 -.004169595142969095 .0195605336415888
5 -.00607632884623863 .0191541421046673 -.00786965489469224 .01838664003668005 -
.00966196966601141 .01761957077191495 -.0112732555319147 .0165201001725823 -.012
88363277522372 .0154212495773405 -.0142521794333396 .01403122879151686 -.0156199
543522842 .01264199185437164 -.0166942070475636 .01101378459264016 -.01776785395
94138 .00938649549567829 -.01850734433497675 .00758143823206415 -.01924641770342
965 .00577739886095794 -.0196232882909508 .003863490216142975 -.0199999463568259
5 .001950660846360505 -.02 3469446951953615e-33 -.02000005361292405 -.0019495608
4632144 -.0196232882909508 -.00386349021614297 -.01924673543126995 -.00577634029
921058 -.01850734433497675 -.00758143823206414 -.01776837018979715 -.00938551824
95046 -.0166942070475636 -.01101378459264016 -.0156206496382123 -.01264113273776
07 -.0142521794333396 -.01403122879151686 -.0128844809244641 -.0154205409542124
 -.0112732555319147 -.0165201001725823 -.00966293872782428 -.01761903933691115 -
.00786965489469223 -.0183866400366801 -.00607738231491698 -.0191538078775953 -.0
0416959514296908 -.01956053364158885 -.002262612242661805 -.019967087940965 -.00
03124618600108405 -.0199975590406939 127 17 149 3 2 2 2 2 2 2 2 2 2 2 2 2 2 2 2
 3 128 17 150 0 .0625 .125 .1875 .25 .3125 .375 .4375 .5 .5625 .625 .6875 .75 .8
125 .875 .9375 1 141 122 120 122 122 117 134 123 0 0 0 0 0 0 +151 152 136 151 2
 3 2 2 5 FFF1 153 154 155 135 152 2 0 45 6 153 .000312461860010838 .019997559040
6939 -195156391047391e-32 .0200024412572566 -.00031246186001084 .019997559040693
9 127 2 154 3 3 128 2 155 0 1 81 255 1 116 116 156 12 0 0 0 0 157 80 255 1 156 1
58 159 9000 1 1 1 1 1 1 1 1 0 FFFFTFTFFFFFFF1 82 255 1 157 -664469255 79 255 14
 159 SWEntUnchanged40 4 75 0 1 4 1640941541816305e-21 .01297066726191584 ??-.019
4953177942503 -.022 -.0003047641701856085 -.01949763205513235 -.022 -51888713500
2385e-19 -.01949729097599035 -.022 .000126435555504621 -.0194953177942502 -.022
 .0003047641701931825 41 1 76 L?-.0194953177942503 -.022 -.0003047641701856085 4
1 1 77 L?-.0194953177942502 -.022 .0003047641701931825 204 16 78 4 -.00030476417
01856085 -.0194953177942503 -.0002473991767958425 1.000382366071034 -51888713500
2385e-19 -.01949763205513235 .414832827498185 1.000382246246996 .000126435555504
621 -.01949729097599035 .70752601179629 1.000382263907626 .0003047641701931825 -
.0194953177942502 1.00024739918893 1.000382366071034 40 4 70 0 1 4 1640941541809
365e-21 .01297066726172158 ??.01949531779425025 -.022 .00030476417018874 .019497
6320551323 -.022 518887135033897e-19 .0194972909759904 -.022 -.00012643555550257
2 .0194953177942502 -.022 -.000304764170192236 41 1 71 L?.01949531779425025 -.02
2 .00030476417018874 41 1 72 L?.0194953177942502 -.022 -.000304764170192236 204
 16 73 4 .00030476417018874 .01949531779425025 -.000247399181805232 1.0003823660
71034 518887135033897e-19 .0194976320551323 .414832827492984 1.000382246246996 -
.000126435555502572 .0194972909759904 .707526011792944 1.000382263907626 -.00030
4764170192236 .0194953177942502 1.000247399187404 1.000382366071034 17 58 0 0 0
 0 48 47 61 0 0 +17 47 0 53 54 50 45 58 61 0 59 -40 11 20 0 1 11 .00110258279012
3732 .3379509048262295 ??.0194953177942502 -.022 -.0003047641701922355 .01830061
94671063 -.022 -.00673329931656031 .01504510343830655 -.022 -.0124038169110345 .
01009843649697452 -.022 -.0166771503510384 .004003623285916845 -.022 -.019078658
7853055 -.00253069595164143 -.022 -.0193285997789741 -.00879959982716253 -.022 -
.01739700732881415 -.01406840901161942 -.022 -.01350062179436492 -.0177436492249
4435 -.022 -.00808786384753025 -.0194186959794238 -.022 -.001763385068251685 -.0
194953177942503 -.022 -.000304764170185611 41 1 21 L?.0194953177942502 -.022 -.0
003047641701922355 41 1 22 L?-.0194953177942503 -.022 -.000304764170185611 204 4
4 23 4 -.0003047641701922355 .0194953177942502 -3863360388868615e-21 1.000382373
678276 -.00673329931656031 .0183006194671063 .1456915008531536 1.00004653915589
 -.0124038169110345 .01504510343830655 .26052892945138 .999748962510636 -.016677
1503510384 .01009843649697452 .358265376140533 .999527326891699 -.01907865878530
55 .004003623285916845 .447313491739115 .999404480722566 -.0193285997789741 -.00
253069595164143 .533091026454262 .999391822496525 -.01739700732881415 -.00879959
982716253 .621087568557209 .999490282676695 -.01350062179436492 -.01406840901161
942 .716480816067431 .999691787666963 -.00808786384753025 -.01774364922494435 .8
26645719937663 .999975330832329 -.001763385068251685 -.0194186959794238 .9638671
65212716 1.000306679183062 -.000304764170185611 -.0194953177942503 1.00000386336
0554 1.000382373678276 141 14 13 14 14 5 126 15 FF3 1 40 4 6 5 19 4 FFF9 3 160 1
61 162 163 164 125 16 0 1 0 1 -.01 1.01 -.01 1.01 1 BBBBBBBB????0 0 0 0 45 480 1
60 .03276636192484815 -.14825 -.000505874405075752 .03264 -.147 -5e-4 .020003807
51518745 -.022 874405075751983e-19 .0198774455903393 -.02075 933149126509502e-19
 .0325509160864298 -.14825 -.000504541397183799 .0324266666666667 -.147 -5e-4 .0
2000172469035625 -.022 -458602816201479e-19 .01987747527059315 -.02075 -41318884
4363494e-19 .03233547024801145 -.14825 -.000503208389291845 .03221333333333335 -
.147 -5e-4 .0199996418655251 -.022 -.000179161070815494 .019877504950847 -.02075
 -.000175952681523649 .0321200244095931 -.14825 -.000501875381399892 .032 -.147
 -5e-4 .0199975590406939 -.022 -.00031246186001084 .01987753463110085 -.02075 -.
0003105864786109485 .03077348791947835 -.14825 -.000493544082075182 .03066666666
66667 -.147 -5e-4 .01998454138549905 -.022 -.001145591792481754 .019877720132687
35 -.02075 -.001152047710406572 .02942747642451455 -.14825 -.000484703152295687
 .02933333333333335 -.147 -5e-4 .01991902421521185 -.022 -.00202968477043126 .01
982488112403065 -.02075 -.00204498161813557 .0267369321875607 -.14825 -.00046607
308727185 .0266666666666667 -.147 -5e-4 .0196401145772642 -.022 -.00389269127281
5045 .0195698490563702 -.02075 -.0039266181855432 .0253924007138583 -.14825 -.00
0456281411274331 .02533333333333335 -.147 -5e-4 .01942659528083585 -.022 -.00487
185887256691 .0193675279003109 -.02075 -.00491557746129258 .02270531842719565 -.
14825 -.000435984375841478 .0226666666666667 -.147 -5e-4 .0188014906137705 -.022
 -.00690156241585219 .0187628388532415 -.02075 -.00696557804001071 .021362770829
0184 -.14825 -.000425476542773884 .02133333333333335 -.147 -5e-4 .01838958376482
695 -.022 -.00795234572261161 .0183601462691419 -.02075 -.00802686917983773 .018
68016696604055 -.14825 -.000404227639740989 .0186666666666667 -.147 -5e-4 .01731
66367292788 -.022 -.0100772360259011 .0173031364299049 -.02075 -.010173008386160
12 .0173401163267437 -.14825 -.0003934857281893475 .01733333333333335 -.147 -5e-
4 .01665503399229685 -.022 -.01115142718106522 .0166482509988865 -.02075 -.01125
79414528759 .01466289414275436 -.14825 -.000372551902679378 .0146666666666667 -.
147 -5e-4 .0150439190578996 -.022 -.01324480973206222 .0150476915818119 -.02075
 -.01337225782938284 .013325729672685 -.14825 -.000362363115925 .013333333333333
36 -.147 -5e-4 .01409369939816962 -.022 -.01426368840750002 .01410130305881798 -
.02075 -.01440132529157502 .0106543482261466 -.14825 -.00034359658851505 .010666
6666666667 -.147 -5e-4 .0118985107186747 -.022 -.016140341148495 .01191082915919
48 -.02075 -.01629674455997995 .00932013636753682 -.14825 -.0003350275022641065
 .00933333333333336 -.147 -5e-4 .0106530299129873 -.022 -.01699724977358935 .010
66622687878382 -.02075 -.01716222227132525 .0066542105549878 -.14825 -.000320666
2251073975 .0066666666666667 -.147 -5e-4 .00791227783455677 -.022 -.018433377489
26025 .00792473394623567 -.02075 -.01861271126415285 .00532249493378756 -.14825
 -.0003148862250621185 .00533333333333336 -.147 -5e-4 .0064171732879134 -.022 -.
01901137749378815 .0064280116874592 -.02075 -.01919649126872605 .002660524068144
2 -.14825 -.0003070484634068495 .002666666666666695 -.147 -5e-4 .003280926518916
37 -.022 -.01979515365931505 .003287069117438865 -.02075 -.0199881051959082 .001
330258382285646 -.14825 -305e-6 .00133333333333336 -.147 -5e-4 .0016408284381047
15 -.022 -.02 .00164390338915243 -.02075 -.020195 -.00133025838228559 -.14825 -3
05e-6 -.001333333333333304 -.147 -5e-4 -.001640828438104715 -.022 -.02 -.0016439
03389152425 -.02075 -.020195 -.002660524068144135 -.14825 -.0003070484634068495
 -.002666666666666635 -.147 -5e-4 -.00328092651891637 -.022 -.01979515365931505
 -.00328706911743887 -.02075 -.0199881051959082 -.00532249493378749 -.14825 -.00
03148862250621185 -.0053333333333333 -.147 -5e-4 -.0064171732879134 -.022 -.0190
1137749378815 -.0064280116874592 -.02075 -.019196491268726 -.00665421055498773 -
.14825 -.0003206662251073975 -.00666666666666663 -.147 -5e-4 -.00791227783455677
 -.022 -.01843337748926025 -.00792473394623567 -.02075 -.01861271126415285 -.009
32013636753676 -.14825 -.0003350275022641065 -.0093333333333333 -.147 -5e-4 -.01
06530299129873 -.022 -.01699724977358935 -.01066622687878384 -.02075 -.017162222
27132525 -.01065434822614654 -.14825 -.00034359658851505 -.01066666666666662 -.1
47 -5e-4 -.0118985107186747 -.022 -.016140341148495 -.0119108291591948 -.02075 -
.01629674455997995 -.01332572967268494 -.14825 -.000362363115925 -.0133333333333
333 -.147 -5e-4 -.01409369939816962 -.022 -.01426368840750002 -.0141013030588179
8 -.02075 -.01440132529157502 -.0146628941427543 -.14825 -.000372551902679378 -.
01466666666666662 -.147 -5e-4 -.01504391905789955 -.022 -.01324480973206222 -.01
50476915818119 -.02075 -.01337225782938284 -.01734011632674365 -.14825 -.0003934
85728189348 -.0173333333333333 -.147 -5e-4 -.01665503399229685 -.022 -.011151427
18106522 -.0166482509988865 -.02075 -.01125794145287588 -.0186801669660405 -.148
25 -.000404227639740989 -.01866666666666665 -.147 -5e-4 -.0173166367292788 -.022
 -.0100772360259011 -.0173031364299049 -.02075 -.01017300838616012 -.02136277082
901835 -.14825 -.000425476542773884 -.0213333333333333 -.147 -5e-4 -.01838958376
482695 -.022 -.00795234572261161 -.0183601462691419 -.02075 -.00802686917983773
 -.0227053184271956 -.14825 -.000435984375841478 -.02266666666666665 -.147 -5e-4
 -.0188014906137705 -.022 -.00690156241585219 -.0187628388532415 -.02075 -.00696
557804001071 -.0253924007138583 -.14825 -.000456281411274331 -.0253333333333333
 -.147 -5e-4 -.01942659528083585 -.022 -.00487185887256691 -.0193675279003109 -.
02075 -.00491557746129258 -.0267369321875607 -.14825 -.00046607308727185 -.02666
666666666665 -.147 -5e-4 -.0196401145772642 -.022 -.00389269127281505 -.01956984
90563702 -.02075 -.0039266181855432 -.02942747642451455 -.14825 -.00048470315229
5687 -.0293333333333333 -.147 -5e-4 -.01991902421521185 -.022 -.0020296847704312
6 -.01982488112403065 -.02075 -.002044981618135575 -.03077348791947835 -.14825 -
.000493544082075182 -.03066666666666665 -.147 -5e-4 -.01998454138549905 -.022 -.
001145591792481754 -.0198777201326874 -.02075 -.001152047710406572 -.03212002440
959305 -.14825 -.000501875381399892 -.032 -.147 -5e-4 -.0199975590406939 -.022 -
.0003124618600108405 -.01987753463110085 -.02075 -.000310586478610949 -.03233547
02480114 -.14825 -.000503208389291845 -.03221333333333335 -.147 -5e-4 -.01999964
18655251 -.022 -.0001791610708154945 -.019877504950847 -.02075 -.000175952681523
6495 -.03255091608642975 -.14825 -.000504541397183799 -.03242666666666665 -.147
 -5e-4 -.02000172469035625 -.022 -458602816201481e-19 -.01987747527059315 -.0207
5 -413188844363496e-19 -.0327663619248481 -.14825 -.000505874405075752 -.03264 -
.147 -5e-4 -.02000380751518745 -.022 874405075751981e-19 -.0198774455903393 -.02
075 933149126509501e-19 127 19 161 4 3 2 2 2 2 2 2 2 2 2 2 2 2 2 2 2 3 4 127 4 1
62 2 1 1 2 128 19 163 -.01 0 .0625 .125 .1875 .25 .3125 .375 .4375 .5 .5625 .625
 .6875 .75 .8125 .875 .9375 1 1.01 128 4 164 -.01 0 1 1.01 74 4 CI16 index_map_o
ffset0 0 1 dCCZ20 11 1 0 0 116 0 0 0 0 0 0 0 0 0 0 0 0 0 0 0 0 0 0 0 1 0 
